<svg width="230" height="130" viewBox="0 0 230 130" fill="none" xmlns="http://www.w3.org/2000/svg">
<g clip-path="url(#clip0)">
<path fill-rule="evenodd" clip-rule="evenodd" d="M229.855 0H1V130H230V0H229.855Z" fill="#FFFFFE"/>
<path fill-rule="evenodd" clip-rule="evenodd" d="M2 108H229V1H2V108Z" fill="#1A1919"/>
<path fill-rule="evenodd" clip-rule="evenodd" d="M5.21948 22.7859H67.8525V5.18823H5.21948V22.7859Z" fill="#FFFFFE"/>
<path fill-rule="evenodd" clip-rule="evenodd" d="M5.19312 91.3231H67.8596V26.6262H5.19312V91.3231Z" fill="#FFFFFE"/>
<path fill-rule="evenodd" clip-rule="evenodd" d="M5.20264 103.722V95.13H17.7857V97.1411H10.2603V98.3702H16.6283V100.374H10.2603V101.718H18.075V103.722H5.20264Z" fill="#FFFFFE"/>
<path fill-rule="evenodd" clip-rule="evenodd" d="M28.7668 97.6313C28.6878 97.3443 28.4081 97.1554 28.0374 97.0525C27.6787 96.9425 27.234 96.8946 26.7294 96.8946C25.6198 96.8946 25.1224 97.0739 25.1224 97.3944C25.1224 98.6641 33.9918 97.8679 33.9918 100.993C33.9918 102.983 31.0122 103.954 26.7748 103.954C22.7048 103.954 20.048 102.629 19.9404 101.079H24.7829C24.8905 101.388 25.1917 101.608 25.6198 101.754C26.0263 101.897 26.5572 101.971 27.0594 101.971C28.322 101.971 29.1638 101.747 29.1638 101.34C29.1638 100.039 20.2848 100.931 20.2848 97.6575C20.2848 95.8306 23.1137 94.9194 26.9733 94.9194C31.2513 94.9194 33.2027 96.1295 33.5757 97.6313H28.7668Z" fill="#FFFFFE"/>
<path fill-rule="evenodd" clip-rule="evenodd" d="M41.5624 100.728V103.722H36.5095V95.13H43.7958C48.93 95.13 50.6254 95.9192 50.6254 97.5883C50.6254 98.5807 49.8339 99.4056 48.0356 99.695C49.6617 100.02 50.6469 100.223 50.6469 101.957C50.6469 103.074 50.5823 103.461 51.1825 103.461V103.722H46.0556C45.9313 103.531 45.8045 102.983 45.8045 102.22C45.8045 101.094 45.4602 100.728 43.1047 100.728H41.5624ZM41.5624 98.8581H43.5519C45.1135 98.8581 45.9528 98.6285 45.9528 98.0378C45.9528 97.4328 45.0991 97.1411 43.9178 97.1411H41.5624V98.8581Z" fill="#FFFFFE"/>
<path fill-rule="evenodd" clip-rule="evenodd" d="M53.7292 103.722V95.13H61.1041C64.5762 95.13 67.3406 95.5987 67.3406 97.2989C67.3406 98.186 66.3075 98.827 65.3271 99.1642C66.9938 99.4057 67.8905 100.209 67.8905 101.13C67.8905 103.045 65.2626 103.722 61.2499 103.722H53.7292ZM58.7845 100.135V101.718H60.9893C62.2423 101.718 63.1821 101.572 63.1821 100.931C63.1821 100.183 62.0056 100.135 60.3914 100.135H58.7845ZM58.7845 97.1411V98.5806H60.8912C61.8955 98.5806 62.6273 98.32 62.6273 97.8274C62.6273 97.1554 61.6325 97.1411 60.5684 97.1411H58.7845Z" fill="#FFFFFE"/>
<path fill-rule="evenodd" clip-rule="evenodd" d="M72 104H227V5H72V104Z" fill="#FFFFFE"/>
<path d="M77.318 51V39.4986H85.0771V40.8559H78.84V44.4177H84.2377V45.775H78.84V51H77.318ZM92.3185 49.9723C91.7954 50.4168 91.2907 50.7306 90.8043 50.9137C90.3231 51.0968 89.8053 51.1883 89.2509 51.1883C88.3356 51.1883 87.6321 50.966 87.1405 50.5214C86.6488 50.0716 86.403 49.4989 86.403 48.8033C86.403 48.3953 86.4946 48.024 86.6776 47.6892C86.8659 47.3493 87.1091 47.0773 87.4072 46.8733C87.7106 46.6693 88.0506 46.515 88.4271 46.4104C88.7043 46.3372 89.1228 46.2666 89.6824 46.1986C90.8226 46.0626 91.6621 45.9005 92.2008 45.7122C92.206 45.5187 92.2086 45.3958 92.2086 45.3435C92.2086 44.7681 92.0753 44.3628 91.8085 44.1274C91.4476 43.8084 90.9115 43.6488 90.2002 43.6488C89.536 43.6488 89.0443 43.7665 88.7253 44.0019C88.4115 44.232 88.1787 44.6426 88.027 45.2336L86.6462 45.0453C86.7718 44.4543 86.9784 43.9784 87.266 43.6175C87.5537 43.2513 87.9695 42.9715 88.5134 42.778C89.0574 42.5793 89.6876 42.4799 90.4042 42.4799C91.1155 42.4799 91.6935 42.5636 92.138 42.7309C92.5826 42.8983 92.9095 43.1101 93.1187 43.3664C93.3279 43.6175 93.4744 43.9365 93.558 44.3235C93.6051 44.5641 93.6287 44.9983 93.6287 45.6259V47.5088C93.6287 48.8216 93.6574 49.6532 93.715 50.0036C93.7777 50.3488 93.898 50.681 94.0758 51H92.6009C92.4545 50.7071 92.3603 50.3645 92.3185 49.9723ZM92.2008 46.8184C91.6882 47.0276 90.9194 47.2054 89.8942 47.3519C89.3137 47.4356 88.9031 47.5297 88.6625 47.6343C88.4219 47.7389 88.2362 47.8932 88.1055 48.0972C87.9747 48.2959 87.9093 48.5182 87.9093 48.7641C87.9093 49.1406 88.0506 49.4545 88.333 49.7055C88.6207 49.9566 89.0391 50.0821 89.5883 50.0821C90.1322 50.0821 90.616 49.9644 91.0397 49.729C91.4633 49.4884 91.7745 49.1616 91.9733 48.7484C92.125 48.4293 92.2008 47.9586 92.2008 47.3362V46.8184ZM95.8254 51V42.6682H97.0963V43.8528C97.7083 42.9375 98.5922 42.4799 99.7481 42.4799C100.25 42.4799 100.71 42.5714 101.129 42.7545C101.553 42.9323 101.869 43.1677 102.078 43.4606C102.287 43.7534 102.434 44.1013 102.518 44.504C102.57 44.7655 102.596 45.2232 102.596 45.8769V51H101.184V45.9319C101.184 45.3565 101.129 44.9276 101.019 44.6452C100.909 44.3575 100.713 44.13 100.431 43.9627C100.153 43.7901 99.8265 43.7038 99.45 43.7038C98.8485 43.7038 98.3281 43.8947 97.8887 44.2765C97.4546 44.6583 97.2375 45.3827 97.2375 46.4497V51H95.8254ZM107.852 49.7369L108.056 50.9843C107.659 51.068 107.303 51.1098 106.989 51.1098C106.477 51.1098 106.079 51.0288 105.797 50.8666C105.514 50.7045 105.316 50.4927 105.201 50.2311C105.086 49.9644 105.028 49.4074 105.028 48.5601V43.7665H103.992V42.6682H105.028V40.6048L106.432 39.7575V42.6682H107.852V43.7665H106.432V48.6385C106.432 49.0413 106.456 49.3002 106.503 49.4152C106.555 49.5303 106.636 49.6218 106.746 49.6898C106.861 49.7578 107.023 49.7918 107.233 49.7918C107.39 49.7918 107.596 49.7735 107.852 49.7369ZM114.678 49.9723C114.155 50.4168 113.65 50.7306 113.164 50.9137C112.683 51.0968 112.165 51.1883 111.61 51.1883C110.695 51.1883 109.992 50.966 109.5 50.5214C109.008 50.0716 108.762 49.4989 108.762 48.8033C108.762 48.3953 108.854 48.024 109.037 47.6892C109.225 47.3493 109.469 47.0773 109.767 46.8733C110.07 46.6693 110.41 46.515 110.787 46.4104C111.064 46.3372 111.482 46.2666 112.042 46.1986C113.182 46.0626 114.022 45.9005 114.56 45.7122C114.565 45.5187 114.568 45.3958 114.568 45.3435C114.568 44.7681 114.435 44.3628 114.168 44.1274C113.807 43.8084 113.271 43.6488 112.56 43.6488C111.895 43.6488 111.404 43.7665 111.085 44.0019C110.771 44.232 110.538 44.6426 110.386 45.2336L109.006 45.0453C109.131 44.4543 109.338 43.9784 109.625 43.6175C109.913 43.2513 110.329 42.9715 110.873 42.778C111.417 42.5793 112.047 42.4799 112.764 42.4799C113.475 42.4799 114.053 42.5636 114.497 42.7309C114.942 42.8983 115.269 43.1101 115.478 43.3664C115.687 43.6175 115.834 43.9365 115.917 44.3235C115.965 44.5641 115.988 44.9983 115.988 45.6259V47.5088C115.988 48.8216 116.017 49.6532 116.074 50.0036C116.137 50.3488 116.257 50.681 116.435 51H114.96C114.814 50.7071 114.72 50.3645 114.678 49.9723ZM114.56 46.8184C114.048 47.0276 113.279 47.2054 112.254 47.3519C111.673 47.4356 111.263 47.5297 111.022 47.6343C110.781 47.7389 110.596 47.8932 110.465 48.0972C110.334 48.2959 110.269 48.5182 110.269 48.7641C110.269 49.1406 110.41 49.4545 110.692 49.7055C110.98 49.9566 111.399 50.0821 111.948 50.0821C112.492 50.0821 112.975 49.9644 113.399 49.729C113.823 49.4884 114.134 49.1616 114.333 48.7484C114.484 48.4293 114.56 47.9586 114.56 47.3362V46.8184ZM117.62 48.513L119.016 48.2933C119.095 48.853 119.312 49.2819 119.668 49.58C120.028 49.8781 120.531 50.0272 121.174 50.0272C121.822 50.0272 122.304 49.8964 122.617 49.6349C122.931 49.3682 123.088 49.057 123.088 48.7013C123.088 48.3822 122.95 48.1312 122.672 47.9481C122.479 47.8226 121.998 47.6631 121.229 47.4696C120.193 47.208 119.474 46.9831 119.071 46.7949C118.674 46.6013 118.37 46.3372 118.161 46.0025C117.957 45.6625 117.855 45.2885 117.855 44.8806C117.855 44.5092 117.939 44.1666 118.106 43.8528C118.279 43.5338 118.512 43.2696 118.805 43.0604C119.024 42.8983 119.322 42.7623 119.699 42.6525C120.081 42.5374 120.489 42.4799 120.923 42.4799C121.577 42.4799 122.149 42.574 122.641 42.7623C123.138 42.9506 123.504 43.2069 123.739 43.5312C123.975 43.8502 124.137 44.2791 124.226 44.8178L122.845 45.0061C122.782 44.5772 122.599 44.2425 122.296 44.0019C121.998 43.7613 121.574 43.641 121.025 43.641C120.376 43.641 119.913 43.7482 119.636 43.9627C119.359 44.1771 119.22 44.4282 119.22 44.7158C119.22 44.8989 119.278 45.0636 119.393 45.2101C119.508 45.3618 119.689 45.4873 119.934 45.5867C120.076 45.639 120.491 45.7593 121.182 45.9476C122.181 46.2143 122.876 46.434 123.269 46.6066C123.666 46.7739 123.977 47.0198 124.202 47.344C124.427 47.6683 124.54 48.071 124.54 48.5522C124.54 49.023 124.401 49.4675 124.124 49.886C123.852 50.2991 123.457 50.6208 122.939 50.8509C122.421 51.0758 121.836 51.1883 121.182 51.1883C120.099 51.1883 119.273 50.9634 118.703 50.5136C118.138 50.0638 117.777 49.3969 117.62 48.513ZM126.156 54.2088L125.999 52.8829C126.307 52.9666 126.577 53.0084 126.807 53.0084C127.121 53.0084 127.372 52.9561 127.56 52.8515C127.748 52.7469 127.903 52.6005 128.023 52.4122C128.112 52.271 128.256 51.9205 128.454 51.3609C128.481 51.2824 128.522 51.1674 128.58 51.0157L125.418 42.6682H126.94L128.674 47.4931C128.899 48.105 129.1 48.7484 129.278 49.4231C129.44 48.7745 129.634 48.1417 129.859 47.5245L131.64 42.6682H133.052L129.882 51.1412C129.542 52.0565 129.278 52.6868 129.09 53.032C128.839 53.4975 128.551 53.8374 128.227 54.0519C127.903 54.2715 127.516 54.3814 127.066 54.3814C126.794 54.3814 126.49 54.3238 126.156 54.2088ZM142.192 51L137.736 39.4986H139.383L142.372 47.854C142.613 48.5235 142.814 49.1511 142.976 49.7369C143.154 49.1093 143.361 48.4816 143.596 47.854L146.703 39.4986H148.256L143.753 51H142.192ZM149.151 41.1226V39.4986H150.563V41.1226H149.151ZM149.151 51V42.6682H150.563V51H149.151ZM152.195 46.8341C152.195 45.2912 152.624 44.1483 153.481 43.4056C154.198 42.7885 155.071 42.4799 156.102 42.4799C157.247 42.4799 158.183 42.8565 158.91 43.6096C159.637 44.3575 160.001 45.3931 160.001 46.7164C160.001 47.7886 159.839 48.6333 159.514 49.2505C159.195 49.8624 158.727 50.3384 158.11 50.6783C157.498 51.0183 156.829 51.1883 156.102 51.1883C154.935 51.1883 153.991 50.8143 153.27 50.0664C152.553 49.3185 152.195 48.241 152.195 46.8341ZM153.646 46.8341C153.646 47.9011 153.879 48.7013 154.344 49.2348C154.81 49.763 155.396 50.0272 156.102 50.0272C156.803 50.0272 157.386 49.7604 157.851 49.2269C158.317 48.6934 158.549 47.8801 158.549 46.787C158.549 45.7566 158.314 44.9773 157.843 44.4491C157.378 43.9156 156.797 43.6488 156.102 43.6488C155.396 43.6488 154.81 43.913 154.344 44.4412C153.879 44.9695 153.646 45.7671 153.646 46.8341ZM161.633 51V39.4986H163.045V51H161.633ZM170.945 48.3169L172.405 48.4973C172.174 49.3498 171.748 50.0115 171.126 50.4822C170.503 50.9529 169.708 51.1883 168.741 51.1883C167.522 51.1883 166.554 50.8143 165.838 50.0664C165.127 49.3132 164.771 48.2593 164.771 46.9047C164.771 45.503 165.132 44.4151 165.854 43.641C166.575 42.8669 167.512 42.4799 168.662 42.4799C169.776 42.4799 170.686 42.8591 171.392 43.6175C172.099 44.3759 172.452 45.4428 172.452 46.8184C172.452 46.9021 172.449 47.0276 172.444 47.195H166.23C166.282 48.1103 166.541 48.8111 167.007 49.2975C167.472 49.784 168.053 50.0272 168.749 50.0272C169.266 50.0272 169.708 49.8912 170.074 49.6192C170.441 49.3472 170.731 48.9131 170.945 48.3169ZM166.309 46.0339H170.961C170.898 45.333 170.72 44.8073 170.427 44.4569C169.978 43.913 169.394 43.641 168.678 43.641C168.029 43.641 167.483 43.8581 167.038 44.2922C166.599 44.7263 166.356 45.3068 166.309 46.0339ZM174.185 51V42.6682H175.456V43.8528C176.068 42.9375 176.952 42.4799 178.108 42.4799C178.61 42.4799 179.07 42.5714 179.489 42.7545C179.913 42.9323 180.229 43.1677 180.438 43.4606C180.647 43.7534 180.794 44.1013 180.878 44.504C180.93 44.7655 180.956 45.2232 180.956 45.8769V51H179.544V45.9319C179.544 45.3565 179.489 44.9276 179.379 44.6452C179.269 44.3575 179.073 44.13 178.791 43.9627C178.513 43.7901 178.187 43.7038 177.81 43.7038C177.209 43.7038 176.688 43.8947 176.249 44.2765C175.815 44.6583 175.598 45.3827 175.598 46.4497V51H174.185ZM188.566 47.9481L189.955 48.1286C189.803 49.0857 189.413 49.8363 188.786 50.3802C188.163 50.9189 187.397 51.1883 186.487 51.1883C185.347 51.1883 184.429 50.8169 183.733 50.0742C183.043 49.3263 182.698 48.2567 182.698 46.8655C182.698 45.9659 182.847 45.1787 183.145 44.504C183.443 43.8293 183.895 43.3246 184.502 42.9898C185.114 42.6499 185.778 42.4799 186.495 42.4799C187.4 42.4799 188.14 42.71 188.715 43.1703C189.29 43.6253 189.659 44.2739 189.821 45.1159L188.448 45.3278C188.318 44.7681 188.085 44.3471 187.75 44.0647C187.421 43.7822 187.021 43.641 186.55 43.641C185.838 43.641 185.261 43.8973 184.816 44.4098C184.371 44.9172 184.149 45.7226 184.149 46.8262C184.149 47.9455 184.364 48.7588 184.792 49.2662C185.221 49.7735 185.781 50.0272 186.471 50.0272C187.026 50.0272 187.489 49.8572 187.86 49.5172C188.231 49.1772 188.467 48.6542 188.566 47.9481ZM196.867 48.3169L198.326 48.4973C198.096 49.3498 197.669 50.0115 197.047 50.4822C196.425 50.9529 195.63 51.1883 194.662 51.1883C193.443 51.1883 192.476 50.8143 191.759 50.0664C191.048 49.3132 190.692 48.2593 190.692 46.9047C190.692 45.503 191.053 44.4151 191.775 43.641C192.497 42.8669 193.433 42.4799 194.584 42.4799C195.698 42.4799 196.608 42.8591 197.314 43.6175C198.02 44.3759 198.373 45.4428 198.373 46.8184C198.373 46.9021 198.37 47.0276 198.365 47.195H192.151C192.204 48.1103 192.463 48.8111 192.928 49.2975C193.394 49.784 193.974 50.0272 194.67 50.0272C195.188 50.0272 195.63 49.8912 195.996 49.6192C196.362 49.3472 196.652 48.9131 196.867 48.3169ZM192.23 46.0339H196.882C196.819 45.333 196.642 44.8073 196.349 44.4569C195.899 43.913 195.316 43.641 194.599 43.641C193.951 43.641 193.404 43.8581 192.959 44.2922C192.52 44.7263 192.277 45.3068 192.23 46.0339ZM84.7869 57.4986H86.3089V64.1437C86.3089 65.2996 86.1781 66.2175 85.9166 66.8974C85.6551 67.5774 85.1818 68.1318 84.4966 68.5607C83.8167 68.9843 82.9223 69.1961 81.8135 69.1961C80.736 69.1961 79.8547 69.0105 79.1695 68.6391C78.4844 68.2678 77.9954 67.7317 77.7025 67.0308C77.4096 66.3247 77.2631 65.3623 77.2631 64.1437V57.4986H78.7851V64.1358C78.7851 65.1348 78.8767 65.8723 79.0597 66.3482C79.248 66.819 79.5671 67.1825 80.0169 67.4388C80.4719 67.695 81.0263 67.8232 81.6801 67.8232C82.7994 67.8232 83.597 67.5695 84.0729 67.0622C84.5489 66.5548 84.7869 65.5794 84.7869 64.1358V57.4986ZM88.1055 66.513L89.502 66.2933C89.5804 66.853 89.7975 67.2819 90.1531 67.58C90.514 67.8781 91.0161 68.0272 91.6595 68.0272C92.308 68.0272 92.7892 67.8964 93.103 67.6349C93.4168 67.3682 93.5737 67.057 93.5737 66.7013C93.5737 66.3822 93.4351 66.1312 93.1579 65.9481C92.9644 65.8226 92.4832 65.6631 91.7144 65.4696C90.6788 65.208 89.9596 64.9831 89.5569 64.7949C89.1594 64.6013 88.856 64.3372 88.6468 64.0025C88.4428 63.6625 88.3408 63.2885 88.3408 62.8806C88.3408 62.5092 88.4245 62.1666 88.5919 61.8528C88.7645 61.5338 88.9972 61.2696 89.2901 61.0604C89.5098 60.8983 89.8079 60.7623 90.1845 60.6525C90.5663 60.5374 90.9743 60.4799 91.4084 60.4799C92.0622 60.4799 92.6349 60.574 93.1265 60.7623C93.6234 60.9506 93.9895 61.2069 94.2249 61.5312C94.4603 61.8502 94.6224 62.2791 94.7113 62.8178L93.3305 63.0061C93.2678 62.5772 93.0847 62.2425 92.7814 62.0019C92.4832 61.7613 92.0596 61.641 91.5104 61.641C90.8618 61.641 90.399 61.7482 90.1218 61.9627C89.8445 62.1771 89.7059 62.4282 89.7059 62.7158C89.7059 62.8989 89.7635 63.0636 89.8785 63.2101C89.9936 63.3618 90.1741 63.4873 90.4199 63.5867C90.5611 63.639 90.9769 63.7593 91.6673 63.9476C92.6663 64.2143 93.3619 64.434 93.7542 64.6066C94.1517 64.7739 94.4629 65.0198 94.6878 65.344C94.9127 65.6683 95.0251 66.071 95.0251 66.5522C95.0251 67.023 94.8865 67.4675 94.6093 67.886C94.3374 68.2991 93.9425 68.6208 93.4247 68.8509C92.9069 69.0758 92.3211 69.1883 91.6673 69.1883C90.5846 69.1883 89.7582 68.9634 89.1881 68.5136C88.6233 68.0638 88.2624 67.3969 88.1055 66.513ZM102.408 66.3169L103.867 66.4973C103.637 67.3498 103.211 68.0115 102.588 68.4822C101.966 68.9529 101.171 69.1883 100.203 69.1883C98.9845 69.1883 98.0169 68.8143 97.3003 68.0664C96.589 67.3132 96.2333 66.2593 96.2333 64.9047C96.2333 63.503 96.5942 62.4151 97.316 61.641C98.0378 60.8669 98.974 60.4799 100.125 60.4799C101.239 60.4799 102.149 60.8591 102.855 61.6175C103.561 62.3759 103.914 63.4428 103.914 64.8184C103.914 64.9021 103.911 65.0276 103.906 65.195H97.6926C97.7449 66.1103 98.0038 66.8111 98.4693 67.2975C98.9348 67.784 99.5153 68.0272 100.211 68.0272C100.729 68.0272 101.171 67.8912 101.537 67.6192C101.903 67.3472 102.193 66.9131 102.408 66.3169ZM97.771 64.0339H102.423C102.361 63.333 102.183 62.8073 101.89 62.4569C101.44 61.913 100.857 61.641 100.14 61.641C99.4918 61.641 98.9452 61.8581 98.5007 62.2922C98.0613 62.7263 97.8181 63.3068 97.771 64.0339ZM105.632 69V60.6682H106.903V61.9313C107.227 61.3403 107.526 60.9506 107.797 60.7623C108.075 60.574 108.378 60.4799 108.708 60.4799C109.184 60.4799 109.667 60.6316 110.159 60.9349L109.673 62.2451C109.327 62.0411 108.982 61.9391 108.637 61.9391C108.328 61.9391 108.051 62.0333 107.805 62.2216C107.56 62.4046 107.384 62.6609 107.28 62.9904C107.123 63.4925 107.044 64.0417 107.044 64.6379V69H105.632ZM110.434 66.513L111.83 66.2933C111.908 66.853 112.126 67.2819 112.481 67.58C112.842 67.8781 113.344 68.0272 113.988 68.0272C114.636 68.0272 115.117 67.8964 115.431 67.6349C115.745 67.3682 115.902 67.057 115.902 66.7013C115.902 66.3822 115.763 66.1312 115.486 65.9481C115.292 65.8226 114.811 65.6631 114.042 65.4696C113.007 65.208 112.288 64.9831 111.885 64.7949C111.487 64.6013 111.184 64.3372 110.975 64.0025C110.771 63.6625 110.669 63.2885 110.669 62.8806C110.669 62.5092 110.753 62.1666 110.92 61.8528C111.093 61.5338 111.325 61.2696 111.618 61.0604C111.838 60.8983 112.136 60.7623 112.513 60.6525C112.894 60.5374 113.302 60.4799 113.736 60.4799C114.39 60.4799 114.963 60.574 115.455 60.7623C115.951 60.9506 116.318 61.2069 116.553 61.5312C116.788 61.8502 116.95 62.2791 117.039 62.8178L115.659 63.0061C115.596 62.5772 115.413 62.2425 115.109 62.0019C114.811 61.7613 114.388 61.641 113.838 61.641C113.19 61.641 112.727 61.7482 112.45 61.9627C112.173 62.1771 112.034 62.4282 112.034 62.7158C112.034 62.8989 112.092 63.0636 112.207 63.2101C112.322 63.3618 112.502 63.4873 112.748 63.5867C112.889 63.639 113.305 63.7593 113.995 63.9476C114.994 64.2143 115.69 64.434 116.082 64.6066C116.48 64.7739 116.791 65.0198 117.016 65.344C117.241 65.6683 117.353 66.071 117.353 66.5522C117.353 67.023 117.215 67.4675 116.937 67.886C116.665 68.2991 116.271 68.6208 115.753 68.8509C115.235 69.0758 114.649 69.1883 113.995 69.1883C112.913 69.1883 112.086 68.9634 111.516 68.5136C110.951 68.0638 110.59 67.3969 110.434 66.513ZM123.943 69V57.4986H125.465V69H123.943ZM127.976 69V60.6682H129.247V61.8528C129.859 60.9375 130.743 60.4799 131.899 60.4799C132.401 60.4799 132.861 60.5714 133.279 60.7545C133.703 60.9323 134.019 61.1677 134.229 61.4606C134.438 61.7534 134.584 62.1013 134.668 62.504C134.72 62.7655 134.746 63.2232 134.746 63.8769V69H133.334V63.9319C133.334 63.3565 133.279 62.9276 133.17 62.6452C133.06 62.3575 132.864 62.13 132.581 61.9627C132.304 61.7901 131.977 61.7038 131.6 61.7038C130.999 61.7038 130.479 61.8947 130.039 62.2765C129.605 62.6583 129.388 63.3827 129.388 64.4497V69H127.976ZM140.003 67.7369L140.207 68.9843C139.809 69.068 139.454 69.1098 139.14 69.1098C138.627 69.1098 138.23 69.0288 137.947 68.8666C137.665 68.7045 137.466 68.4927 137.351 68.2311C137.236 67.9644 137.179 67.4074 137.179 66.5601V61.7665H136.143V60.6682H137.179V58.6048L138.583 57.7575V60.6682H140.003V61.7665H138.583V66.6385C138.583 67.0413 138.606 67.3002 138.654 67.4152C138.706 67.5303 138.787 67.6218 138.897 67.6898C139.012 67.7578 139.174 67.7918 139.383 67.7918C139.54 67.7918 139.747 67.7735 140.003 67.7369ZM147.095 66.3169L148.554 66.4973C148.324 67.3498 147.898 68.0115 147.276 68.4822C146.653 68.9529 145.858 69.1883 144.891 69.1883C143.672 69.1883 142.704 68.8143 141.988 68.0664C141.276 67.3132 140.921 66.2593 140.921 64.9047C140.921 63.503 141.282 62.4151 142.004 61.641C142.725 60.8669 143.662 60.4799 144.812 60.4799C145.926 60.4799 146.836 60.8591 147.542 61.6175C148.248 62.3759 148.601 63.4428 148.601 64.8184C148.601 64.9021 148.599 65.0276 148.594 65.195H142.38C142.432 66.1103 142.691 66.8111 143.157 67.2975C143.622 67.784 144.203 68.0272 144.898 68.0272C145.416 68.0272 145.858 67.8912 146.224 67.6192C146.59 67.3472 146.881 66.9131 147.095 66.3169ZM142.459 64.0339H147.111C147.048 63.333 146.87 62.8073 146.577 62.4569C146.128 61.913 145.544 61.641 144.828 61.641C144.179 61.641 143.633 61.8581 143.188 62.2922C142.749 62.7263 142.506 63.3068 142.459 64.0339ZM150.32 69V60.6682H151.591V61.9313C151.915 61.3403 152.213 60.9506 152.485 60.7623C152.762 60.574 153.066 60.4799 153.395 60.4799C153.871 60.4799 154.355 60.6316 154.846 60.9349L154.36 62.2451C154.015 62.0411 153.67 61.9391 153.324 61.9391C153.016 61.9391 152.739 62.0333 152.493 62.2216C152.247 62.4046 152.072 62.6609 151.967 62.9904C151.81 63.4925 151.732 64.0417 151.732 64.6379V69H150.32ZM161.123 67.9723C160.6 68.4168 160.095 68.7306 159.609 68.9137C159.127 69.0968 158.61 69.1883 158.055 69.1883C157.14 69.1883 156.436 68.966 155.945 68.5214C155.453 68.0716 155.207 67.4989 155.207 66.8033C155.207 66.3953 155.299 66.024 155.482 65.6892C155.67 65.3493 155.913 65.0773 156.212 64.8733C156.515 64.6693 156.855 64.515 157.231 64.4104C157.509 64.3372 157.927 64.2666 158.487 64.1986C159.627 64.0626 160.466 63.9005 161.005 63.7122C161.01 63.5187 161.013 63.3958 161.013 63.3435C161.013 62.7681 160.88 62.3628 160.613 62.1274C160.252 61.8084 159.716 61.6488 159.005 61.6488C158.34 61.6488 157.849 61.7665 157.53 62.0019C157.216 62.232 156.983 62.6426 156.831 63.2336L155.451 63.0453C155.576 62.4543 155.783 61.9784 156.07 61.6175C156.358 61.2513 156.774 60.9715 157.318 60.778C157.862 60.5793 158.492 60.4799 159.209 60.4799C159.92 60.4799 160.498 60.5636 160.942 60.7309C161.387 60.8983 161.714 61.1101 161.923 61.3664C162.132 61.6175 162.279 61.9365 162.362 62.3235C162.409 62.5641 162.433 62.9983 162.433 63.6259V65.5088C162.433 66.8216 162.462 67.6532 162.519 68.0036C162.582 68.3488 162.702 68.681 162.88 69H161.405C161.259 68.7071 161.165 68.3645 161.123 67.9723ZM161.005 64.8184C160.493 65.0276 159.724 65.2054 158.699 65.3519C158.118 65.4356 157.707 65.5297 157.467 65.6343C157.226 65.7389 157.041 65.8932 156.91 66.0972C156.779 66.2959 156.714 66.5182 156.714 66.7641C156.714 67.1406 156.855 67.4545 157.137 67.7055C157.425 67.9566 157.843 68.0821 158.393 68.0821C158.937 68.0821 159.42 67.9644 159.844 67.729C160.268 67.4884 160.579 67.1616 160.778 66.7484C160.929 66.4293 161.005 65.9586 161.005 65.3362V64.8184ZM170.067 65.9481L171.455 66.1286C171.304 67.0857 170.914 67.8363 170.286 68.3802C169.664 68.9189 168.898 69.1883 167.988 69.1883C166.847 69.1883 165.929 68.8169 165.234 68.0742C164.543 67.3263 164.198 66.2567 164.198 64.8655C164.198 63.9659 164.347 63.1787 164.645 62.504C164.944 61.8293 165.396 61.3246 166.003 60.9898C166.615 60.6499 167.279 60.4799 167.995 60.4799C168.9 60.4799 169.64 60.71 170.216 61.1703C170.791 61.6253 171.16 62.2739 171.322 63.1159L169.949 63.3278C169.818 62.7681 169.585 62.3471 169.251 62.0647C168.921 61.7822 168.521 61.641 168.05 61.641C167.339 61.641 166.761 61.8973 166.316 62.4098C165.872 62.9172 165.65 63.7226 165.65 64.8262C165.65 65.9455 165.864 66.7588 166.293 67.2662C166.722 67.7735 167.281 68.0272 167.972 68.0272C168.526 68.0272 168.989 67.8572 169.36 67.5172C169.732 67.1772 169.967 66.6542 170.067 65.9481ZM175.747 67.7369L175.951 68.9843C175.553 69.068 175.197 69.1098 174.884 69.1098C174.371 69.1098 173.974 69.0288 173.691 68.8666C173.409 68.7045 173.21 68.4927 173.095 68.2311C172.98 67.9644 172.922 67.4074 172.922 66.5601V61.7665H171.887V60.6682H172.922V58.6048L174.327 57.7575V60.6682H175.747V61.7665H174.327V66.6385C174.327 67.0413 174.35 67.3002 174.397 67.4152C174.45 67.5303 174.531 67.6218 174.64 67.6898C174.756 67.7578 174.918 67.7918 175.127 67.7918C175.284 67.7918 175.49 67.7735 175.747 67.7369Z" fill="black"/>
<path fill-rule="evenodd" clip-rule="evenodd" d="M10.3655 42.2894L58.8468 30.1989L62.5772 43.1166L46.9979 47.0002L57.4431 83.3026L40.1109 87.6284L29.6562 51.3236L14.0863 55.2095L10.3655 42.2894Z" fill="#1A1919"/>
<path fill-rule="evenodd" clip-rule="evenodd" d="M53.1147 9.00708H57.2302L62.0056 14.4425L61.8382 12.1733V9.00708H66.0517V18.9621H61.9411L57.1536 13.5386L57.2349 15.8917L57.3235 18.9621H53.1147V9.00708Z" fill="#1A1919"/>
<path fill-rule="evenodd" clip-rule="evenodd" d="M38.2815 9.00708H49.2002V11.3219H42.6695V12.7543H48.1958V15.0809H42.6695V16.6377H49.4585V18.9621H38.2815V9.00708Z" fill="#1A1919"/>
<path fill-rule="evenodd" clip-rule="evenodd" d="M22.9365 9.00708H33.8576V11.3219H27.3245V12.7543H32.8485V15.0809H27.3245V16.6377H34.1207V18.9621H22.9365V9.00708Z" fill="#1A1919"/>
<path fill-rule="evenodd" clip-rule="evenodd" d="M6.92676 9.00708H19.2061V11.6208H15.2676V18.9621H10.8724V11.6208H6.92676V9.00708Z" fill="#1A1919"/>
<path d="M3 106H228V128H3V106Z" fill="white" stroke="#1A1919" stroke-width="2"/>
<path d="M6.08594 121V113.126H7.12793V121H6.08594ZM8.84668 121V115.296H9.7168V116.107C10.1357 115.48 10.7409 115.167 11.5322 115.167C11.876 115.167 12.1911 115.23 12.4775 115.355C12.7676 115.477 12.9842 115.638 13.1274 115.838C13.2707 116.039 13.3709 116.277 13.4282 116.553C13.464 116.732 13.4819 117.045 13.4819 117.493V121H12.5151V117.53C12.5151 117.136 12.4775 116.843 12.4023 116.649C12.3271 116.452 12.1929 116.297 11.9995 116.182C11.8097 116.064 11.5859 116.005 11.3281 116.005C10.9163 116.005 10.5601 116.136 10.2593 116.397C9.96208 116.658 9.81348 117.154 9.81348 117.885V121H8.84668ZM14.5938 118.637V117.665H17.564V118.637H14.5938ZM18.4556 121.473L19.3955 121.612C19.4349 121.902 19.5441 122.114 19.7231 122.246C19.9631 122.425 20.2907 122.515 20.7061 122.515C21.1536 122.515 21.4992 122.425 21.7427 122.246C21.9862 122.067 22.1509 121.816 22.2368 121.494C22.2869 121.297 22.3102 120.884 22.3066 120.253C21.8841 120.751 21.3577 121 20.7275 121C19.9434 121 19.3364 120.717 18.9067 120.151C18.4771 119.586 18.2622 118.907 18.2622 118.116C18.2622 117.571 18.3607 117.07 18.5576 116.612C18.7546 116.15 19.0392 115.794 19.4116 115.543C19.7876 115.292 20.228 115.167 20.7329 115.167C21.4061 115.167 21.9611 115.439 22.3979 115.983V115.296H23.2896V120.227C23.2896 121.115 23.1982 121.743 23.0156 122.112C22.8366 122.484 22.5501 122.778 22.1562 122.993C21.766 123.208 21.2843 123.315 20.7114 123.315C20.0311 123.315 19.4814 123.161 19.0625 122.853C18.6436 122.549 18.4412 122.089 18.4556 121.473ZM19.2559 118.046C19.2559 118.794 19.4045 119.34 19.7017 119.684C19.9989 120.028 20.3713 120.2 20.8188 120.2C21.2629 120.2 21.6353 120.03 21.936 119.689C22.2368 119.346 22.3872 118.809 22.3872 118.078C22.3872 117.38 22.2314 116.854 21.9199 116.499C21.612 116.145 21.2396 115.967 20.8027 115.967C20.373 115.967 20.0078 116.143 19.707 116.494C19.4062 116.841 19.2559 117.358 19.2559 118.046ZM28.478 120.296C28.12 120.601 27.7744 120.816 27.4414 120.941C27.112 121.066 26.7575 121.129 26.3779 121.129C25.7513 121.129 25.2697 120.977 24.9331 120.672C24.5965 120.364 24.4282 119.972 24.4282 119.496C24.4282 119.217 24.4909 118.963 24.6162 118.733C24.7451 118.501 24.9116 118.314 25.1157 118.175C25.3234 118.035 25.5562 117.93 25.814 117.858C26.0037 117.808 26.2902 117.759 26.6733 117.713C27.4539 117.62 28.0286 117.509 28.3975 117.38C28.401 117.247 28.4028 117.163 28.4028 117.127C28.4028 116.734 28.3115 116.456 28.1289 116.295C27.8818 116.076 27.5148 115.967 27.0278 115.967C26.5731 115.967 26.2365 116.048 26.0181 116.209C25.8032 116.367 25.6439 116.648 25.54 117.052L24.5947 116.923C24.6807 116.519 24.8221 116.193 25.019 115.946C25.216 115.695 25.5007 115.504 25.873 115.371C26.2454 115.235 26.6769 115.167 27.1675 115.167C27.6545 115.167 28.0501 115.224 28.3545 115.339C28.6589 115.453 28.8826 115.598 29.0259 115.774C29.1691 115.946 29.2694 116.164 29.3267 116.429C29.3589 116.594 29.375 116.891 29.375 117.321V118.61C29.375 119.509 29.3947 120.078 29.4341 120.318C29.4771 120.554 29.5594 120.782 29.6812 121H28.6714C28.5711 120.799 28.5067 120.565 28.478 120.296ZM28.3975 118.137C28.0465 118.28 27.5202 118.402 26.8184 118.502C26.4209 118.56 26.1398 118.624 25.9751 118.696C25.8104 118.767 25.6833 118.873 25.5938 119.013C25.5042 119.149 25.4595 119.301 25.4595 119.469C25.4595 119.727 25.5562 119.942 25.7495 120.114C25.9465 120.286 26.2329 120.372 26.6089 120.372C26.9813 120.372 27.3125 120.291 27.6025 120.13C27.8926 119.965 28.1056 119.741 28.2417 119.458C28.3455 119.24 28.3975 118.918 28.3975 118.492V118.137ZM30.8789 121V115.296H31.7437V116.096C31.9227 115.817 32.1608 115.593 32.458 115.425C32.7552 115.253 33.0936 115.167 33.4731 115.167C33.8957 115.167 34.2412 115.255 34.5098 115.43C34.7819 115.606 34.9735 115.851 35.0845 116.166C35.5356 115.5 36.1229 115.167 36.8462 115.167C37.4119 115.167 37.847 115.325 38.1514 115.64C38.4557 115.951 38.6079 116.433 38.6079 117.084V121H37.6465V117.407C37.6465 117.02 37.6143 116.743 37.5498 116.574C37.4889 116.402 37.3761 116.264 37.2114 116.161C37.0467 116.057 36.8534 116.005 36.6313 116.005C36.2303 116.005 35.8973 116.139 35.6323 116.408C35.3674 116.673 35.2349 117.099 35.2349 117.686V121H34.2681V117.294C34.2681 116.864 34.1893 116.542 34.0317 116.327C33.8742 116.112 33.6164 116.005 33.2583 116.005C32.9862 116.005 32.7337 116.076 32.501 116.22C32.2718 116.363 32.1053 116.572 32.0015 116.848C31.8976 117.124 31.8457 117.521 31.8457 118.041V121H30.8789ZM43.9468 119.163L44.9458 119.287C44.7882 119.87 44.4964 120.323 44.0703 120.646C43.6442 120.968 43.0999 121.129 42.4375 121.129C41.6032 121.129 40.9408 120.873 40.4502 120.361C39.9632 119.845 39.7197 119.124 39.7197 118.196C39.7197 117.237 39.9668 116.492 40.4609 115.962C40.9551 115.432 41.596 115.167 42.3838 115.167C43.1465 115.167 43.7695 115.427 44.2529 115.946C44.7363 116.465 44.978 117.195 44.978 118.137C44.978 118.194 44.9762 118.28 44.9727 118.395H40.7188C40.7546 119.022 40.9318 119.501 41.2505 119.834C41.5692 120.167 41.9666 120.334 42.4429 120.334C42.7974 120.334 43.0999 120.241 43.3506 120.055C43.6012 119.868 43.8 119.571 43.9468 119.163ZM40.7725 117.6H43.9575C43.9146 117.12 43.7928 116.76 43.5923 116.521C43.2843 116.148 42.8851 115.962 42.3945 115.962C41.9505 115.962 41.5763 116.111 41.272 116.408C40.9712 116.705 40.8047 117.102 40.7725 117.6ZM49.3501 121V113.126H52.3203C52.8431 113.126 53.2424 113.151 53.5181 113.201C53.9048 113.266 54.2288 113.389 54.4902 113.572C54.7516 113.751 54.9611 114.003 55.1187 114.329C55.2798 114.655 55.3604 115.013 55.3604 115.403C55.3604 116.073 55.1473 116.64 54.7212 117.106C54.2951 117.568 53.5252 117.799 52.4116 117.799H50.3921V121H49.3501ZM50.3921 116.87H52.4277C53.1009 116.87 53.5789 116.744 53.8618 116.494C54.1447 116.243 54.2861 115.89 54.2861 115.436C54.2861 115.106 54.202 114.825 54.0337 114.592C53.869 114.356 53.6506 114.2 53.3784 114.125C53.203 114.078 52.8789 114.055 52.4062 114.055H50.3921V116.87ZM60.3018 121V120.162C59.8577 120.807 59.2544 121.129 58.4917 121.129C58.1551 121.129 57.84 121.064 57.5464 120.936C57.2563 120.807 57.0397 120.646 56.8965 120.452C56.7568 120.255 56.6584 120.015 56.6011 119.732C56.5617 119.543 56.542 119.242 56.542 118.83V115.296H57.5088V118.459C57.5088 118.964 57.5285 119.305 57.5679 119.48C57.6287 119.734 57.7576 119.935 57.9546 120.082C58.1515 120.225 58.395 120.296 58.6851 120.296C58.9751 120.296 59.2472 120.223 59.5015 120.076C59.7557 119.926 59.9347 119.723 60.0386 119.469C60.146 119.211 60.1997 118.839 60.1997 118.352V115.296H61.1665V121H60.3018ZM62.6758 121V115.296H63.5459V116.161C63.7679 115.756 63.972 115.489 64.1582 115.36C64.348 115.231 64.5557 115.167 64.7812 115.167C65.1071 115.167 65.4383 115.271 65.7749 115.479L65.4419 116.375C65.2056 116.236 64.9692 116.166 64.7329 116.166C64.5216 116.166 64.3319 116.23 64.1636 116.359C63.9953 116.485 63.8753 116.66 63.8037 116.886C63.6963 117.229 63.6426 117.605 63.6426 118.014V121H62.6758ZM70.0718 118.911L71.0225 119.034C70.9186 119.689 70.6519 120.203 70.2222 120.576C69.7961 120.944 69.2715 121.129 68.6484 121.129C67.8678 121.129 67.2394 120.875 66.7632 120.366C66.2905 119.854 66.0542 119.122 66.0542 118.169C66.0542 117.554 66.1562 117.015 66.3604 116.553C66.5645 116.091 66.8742 115.745 67.2896 115.516C67.7085 115.283 68.1632 115.167 68.6538 115.167C69.2733 115.167 69.7799 115.325 70.1738 115.64C70.5677 115.951 70.8201 116.395 70.9312 116.972L69.9912 117.117C69.9017 116.734 69.7424 116.445 69.5132 116.252C69.2876 116.059 69.0137 115.962 68.6914 115.962C68.2044 115.962 67.8088 116.137 67.5044 116.488C67.2 116.836 67.0479 117.387 67.0479 118.143C67.0479 118.909 67.1947 119.466 67.4883 119.813C67.7819 120.16 68.165 120.334 68.6377 120.334C69.0173 120.334 69.3341 120.218 69.5884 119.985C69.8426 119.752 70.0037 119.394 70.0718 118.911ZM71.8496 121V113.126H72.8164V115.951C73.2676 115.428 73.8369 115.167 74.5244 115.167C74.9469 115.167 75.314 115.251 75.6255 115.419C75.937 115.584 76.159 115.813 76.2915 116.107C76.4276 116.401 76.4956 116.827 76.4956 117.385V121H75.5288V117.385C75.5288 116.902 75.4232 116.551 75.2119 116.333C75.0042 116.111 74.7088 116 74.3257 116C74.0392 116 73.7689 116.075 73.5146 116.225C73.264 116.372 73.085 116.572 72.9775 116.827C72.8701 117.081 72.8164 117.432 72.8164 117.879V121H71.8496ZM81.6948 120.296C81.3368 120.601 80.9912 120.816 80.6582 120.941C80.3288 121.066 79.9743 121.129 79.5947 121.129C78.9681 121.129 78.4865 120.977 78.1499 120.672C77.8133 120.364 77.645 119.972 77.645 119.496C77.645 119.217 77.7077 118.963 77.833 118.733C77.9619 118.501 78.1284 118.314 78.3325 118.175C78.5402 118.035 78.7729 117.93 79.0308 117.858C79.2205 117.808 79.507 117.759 79.8901 117.713C80.6707 117.62 81.2454 117.509 81.6143 117.38C81.6178 117.247 81.6196 117.163 81.6196 117.127C81.6196 116.734 81.5283 116.456 81.3457 116.295C81.0986 116.076 80.7316 115.967 80.2446 115.967C79.7899 115.967 79.4533 116.048 79.2349 116.209C79.02 116.367 78.8607 116.648 78.7568 117.052L77.8115 116.923C77.8975 116.519 78.0389 116.193 78.2358 115.946C78.4328 115.695 78.7174 115.504 79.0898 115.371C79.4622 115.235 79.8937 115.167 80.3843 115.167C80.8713 115.167 81.2669 115.224 81.5713 115.339C81.8757 115.453 82.0994 115.598 82.2427 115.774C82.3859 115.946 82.4862 116.164 82.5435 116.429C82.5757 116.594 82.5918 116.891 82.5918 117.321V118.61C82.5918 119.509 82.6115 120.078 82.6509 120.318C82.6938 120.554 82.7762 120.782 82.8979 121H81.8882C81.7879 120.799 81.7235 120.565 81.6948 120.296ZM81.6143 118.137C81.2633 118.28 80.737 118.402 80.0352 118.502C79.6377 118.56 79.3566 118.624 79.1919 118.696C79.0272 118.767 78.9001 118.873 78.8105 119.013C78.721 119.149 78.6763 119.301 78.6763 119.469C78.6763 119.727 78.7729 119.942 78.9663 120.114C79.1632 120.286 79.4497 120.372 79.8257 120.372C80.1981 120.372 80.5293 120.291 80.8193 120.13C81.1094 119.965 81.3224 119.741 81.4585 119.458C81.5623 119.24 81.6143 118.918 81.6143 118.492V118.137ZM83.709 119.297L84.665 119.147C84.7188 119.53 84.8674 119.824 85.1108 120.028C85.3579 120.232 85.7017 120.334 86.1421 120.334C86.5861 120.334 86.9155 120.244 87.1304 120.065C87.3452 119.883 87.4526 119.67 87.4526 119.426C87.4526 119.208 87.3577 119.036 87.168 118.911C87.0355 118.825 86.7061 118.715 86.1797 118.583C85.4707 118.404 84.9784 118.25 84.7026 118.121C84.4305 117.989 84.2228 117.808 84.0796 117.579C83.9399 117.346 83.8701 117.09 83.8701 116.811C83.8701 116.556 83.9274 116.322 84.042 116.107C84.1602 115.889 84.3195 115.708 84.52 115.564C84.6704 115.453 84.8745 115.36 85.1323 115.285C85.3937 115.206 85.673 115.167 85.9702 115.167C86.4178 115.167 86.8099 115.231 87.1465 115.36C87.4867 115.489 87.7373 115.665 87.8984 115.887C88.0596 116.105 88.1706 116.399 88.2314 116.768L87.2861 116.896C87.2432 116.603 87.1178 116.374 86.9102 116.209C86.7061 116.044 86.416 115.962 86.04 115.962C85.596 115.962 85.2791 116.035 85.0894 116.182C84.8996 116.329 84.8047 116.501 84.8047 116.698C84.8047 116.823 84.8441 116.936 84.9229 117.036C85.0016 117.14 85.1252 117.226 85.2935 117.294C85.3901 117.33 85.6748 117.412 86.1475 117.541C86.8314 117.724 87.3076 117.874 87.5762 117.992C87.8483 118.107 88.0614 118.275 88.2153 118.497C88.3693 118.719 88.4463 118.995 88.4463 119.324C88.4463 119.646 88.3514 119.951 88.1616 120.237C87.9754 120.52 87.7051 120.74 87.3506 120.898C86.9961 121.052 86.5951 121.129 86.1475 121.129C85.4062 121.129 84.8405 120.975 84.4502 120.667C84.0635 120.359 83.8164 119.903 83.709 119.297ZM93.5005 119.163L94.4995 119.287C94.342 119.87 94.0501 120.323 93.624 120.646C93.1979 120.968 92.6536 121.129 91.9912 121.129C91.1569 121.129 90.4945 120.873 90.0039 120.361C89.5169 119.845 89.2734 119.124 89.2734 118.196C89.2734 117.237 89.5205 116.492 90.0146 115.962C90.5088 115.432 91.1497 115.167 91.9375 115.167C92.7002 115.167 93.3232 115.427 93.8066 115.946C94.29 116.465 94.5317 117.195 94.5317 118.137C94.5317 118.194 94.5299 118.28 94.5264 118.395H90.2725C90.3083 119.022 90.4855 119.501 90.8042 119.834C91.1229 120.167 91.5203 120.334 91.9966 120.334C92.3511 120.334 92.6536 120.241 92.9043 120.055C93.1549 119.868 93.3537 119.571 93.5005 119.163ZM90.3262 117.6H93.5112C93.4683 117.12 93.3465 116.76 93.146 116.521C92.8381 116.148 92.4388 115.962 91.9482 115.962C91.5042 115.962 91.13 116.111 90.8257 116.408C90.5249 116.705 90.3584 117.102 90.3262 117.6ZM95.332 119.297L96.2881 119.147C96.3418 119.53 96.4904 119.824 96.7339 120.028C96.981 120.232 97.3247 120.334 97.7651 120.334C98.2091 120.334 98.5386 120.244 98.7534 120.065C98.9683 119.883 99.0757 119.67 99.0757 119.426C99.0757 119.208 98.9808 119.036 98.791 118.911C98.6585 118.825 98.3291 118.715 97.8027 118.583C97.0938 118.404 96.6014 118.25 96.3257 118.121C96.0535 117.989 95.8459 117.808 95.7026 117.579C95.563 117.346 95.4932 117.09 95.4932 116.811C95.4932 116.556 95.5505 116.322 95.665 116.107C95.7832 115.889 95.9425 115.708 96.1431 115.564C96.2935 115.453 96.4976 115.36 96.7554 115.285C97.0168 115.206 97.2961 115.167 97.5933 115.167C98.0409 115.167 98.4329 115.231 98.7695 115.36C99.1097 115.489 99.3604 115.665 99.5215 115.887C99.6826 116.105 99.7936 116.399 99.8545 116.768L98.9092 116.896C98.8662 116.603 98.7409 116.374 98.5332 116.209C98.3291 116.044 98.0391 115.962 97.6631 115.962C97.2191 115.962 96.9022 116.035 96.7124 116.182C96.5226 116.329 96.4277 116.501 96.4277 116.698C96.4277 116.823 96.4671 116.936 96.5459 117.036C96.6247 117.14 96.7482 117.226 96.9165 117.294C97.0132 117.33 97.2979 117.412 97.7705 117.541C98.4544 117.724 98.9307 117.874 99.1992 117.992C99.4714 118.107 99.6844 118.275 99.8384 118.497C99.9924 118.719 100.069 118.995 100.069 119.324C100.069 119.646 99.9744 119.951 99.7847 120.237C99.5985 120.52 99.3281 120.74 98.9736 120.898C98.6191 121.052 98.2181 121.129 97.7705 121.129C97.0293 121.129 96.4635 120.975 96.0732 120.667C95.6865 120.359 95.4395 119.903 95.332 119.297ZM106.128 123.315C105.594 122.642 105.143 121.854 104.774 120.952C104.406 120.049 104.221 119.115 104.221 118.148C104.221 117.296 104.359 116.479 104.635 115.699C104.957 114.793 105.455 113.89 106.128 112.992H106.821C106.388 113.736 106.101 114.268 105.961 114.587C105.743 115.081 105.571 115.597 105.446 116.134C105.292 116.803 105.215 117.477 105.215 118.153C105.215 119.876 105.75 121.596 106.821 123.315H106.128ZM107.949 114.238V113.126H108.916V114.238H107.949ZM107.949 121V115.296H108.916V121H107.949ZM110.393 121V115.296H111.263V116.107C111.682 115.48 112.287 115.167 113.078 115.167C113.422 115.167 113.737 115.23 114.023 115.355C114.313 115.477 114.53 115.638 114.673 115.838C114.817 116.039 114.917 116.277 114.974 116.553C115.01 116.732 115.028 117.045 115.028 117.493V121H114.061V117.53C114.061 117.136 114.023 116.843 113.948 116.649C113.873 116.452 113.739 116.297 113.545 116.182C113.356 116.064 113.132 116.005 112.874 116.005C112.462 116.005 112.106 116.136 111.805 116.397C111.508 116.658 111.359 117.154 111.359 117.885V121H110.393ZM120.238 118.911L121.188 119.034C121.085 119.689 120.818 120.203 120.388 120.576C119.962 120.944 119.438 121.129 118.814 121.129C118.034 121.129 117.405 120.875 116.929 120.366C116.457 119.854 116.22 119.122 116.22 118.169C116.22 117.554 116.322 117.015 116.526 116.553C116.73 116.091 117.04 115.745 117.456 115.516C117.875 115.283 118.329 115.167 118.82 115.167C119.439 115.167 119.946 115.325 120.34 115.64C120.734 115.951 120.986 116.395 121.097 116.972L120.157 117.117C120.068 116.734 119.908 116.445 119.679 116.252C119.454 116.059 119.18 115.962 118.857 115.962C118.37 115.962 117.975 116.137 117.67 116.488C117.366 116.836 117.214 117.387 117.214 118.143C117.214 118.909 117.361 119.466 117.654 119.813C117.948 120.16 118.331 120.334 118.804 120.334C119.183 120.334 119.5 120.218 119.754 119.985C120.009 119.752 120.17 119.394 120.238 118.911ZM121.994 121V113.126H122.961V121H121.994ZM128.203 121V120.162C127.759 120.807 127.156 121.129 126.393 121.129C126.056 121.129 125.741 121.064 125.448 120.936C125.158 120.807 124.941 120.646 124.798 120.452C124.658 120.255 124.56 120.015 124.502 119.732C124.463 119.543 124.443 119.242 124.443 118.83V115.296H125.41V118.459C125.41 118.964 125.43 119.305 125.469 119.48C125.53 119.734 125.659 119.935 125.856 120.082C126.053 120.225 126.296 120.296 126.586 120.296C126.876 120.296 127.149 120.223 127.403 120.076C127.657 119.926 127.836 119.723 127.94 119.469C128.047 119.211 128.101 118.839 128.101 118.352V115.296H129.068V121H128.203ZM134.289 121V120.28C133.927 120.846 133.395 121.129 132.693 121.129C132.239 121.129 131.82 121.004 131.437 120.753C131.057 120.502 130.762 120.153 130.55 119.706C130.343 119.254 130.239 118.737 130.239 118.153C130.239 117.584 130.334 117.068 130.523 116.606C130.713 116.141 130.998 115.785 131.377 115.538C131.757 115.291 132.181 115.167 132.65 115.167C132.994 115.167 133.3 115.24 133.569 115.387C133.837 115.53 134.056 115.718 134.224 115.951V113.126H135.186V121H134.289ZM131.232 118.153C131.232 118.884 131.386 119.43 131.694 119.792C132.002 120.153 132.366 120.334 132.785 120.334C133.207 120.334 133.565 120.162 133.859 119.818C134.156 119.471 134.305 118.943 134.305 118.234C134.305 117.453 134.154 116.88 133.854 116.515C133.553 116.15 133.182 115.967 132.742 115.967C132.312 115.967 131.952 116.143 131.662 116.494C131.376 116.845 131.232 117.398 131.232 118.153ZM140.616 119.163L141.615 119.287C141.457 119.87 141.165 120.323 140.739 120.646C140.313 120.968 139.769 121.129 139.106 121.129C138.272 121.129 137.61 120.873 137.119 120.361C136.632 119.845 136.389 119.124 136.389 118.196C136.389 117.237 136.636 116.492 137.13 115.962C137.624 115.432 138.265 115.167 139.053 115.167C139.815 115.167 140.438 115.427 140.922 115.946C141.405 116.465 141.647 117.195 141.647 118.137C141.647 118.194 141.645 118.28 141.642 118.395H137.388C137.424 119.022 137.601 119.501 137.919 119.834C138.238 120.167 138.636 120.334 139.112 120.334C139.466 120.334 139.769 120.241 140.02 120.055C140.27 119.868 140.469 119.571 140.616 119.163ZM137.441 117.6H140.626C140.583 117.12 140.462 116.76 140.261 116.521C139.953 116.148 139.554 115.962 139.063 115.962C138.619 115.962 138.245 116.111 137.941 116.408C137.64 116.705 137.474 117.102 137.441 117.6ZM142.447 119.297L143.403 119.147C143.457 119.53 143.606 119.824 143.849 120.028C144.096 120.232 144.44 120.334 144.88 120.334C145.324 120.334 145.654 120.244 145.869 120.065C146.083 119.883 146.191 119.67 146.191 119.426C146.191 119.208 146.096 119.036 145.906 118.911C145.774 118.825 145.444 118.715 144.918 118.583C144.209 118.404 143.717 118.25 143.441 118.121C143.169 117.989 142.961 117.808 142.818 117.579C142.678 117.346 142.608 117.09 142.608 116.811C142.608 116.556 142.666 116.322 142.78 116.107C142.898 115.889 143.058 115.708 143.258 115.564C143.409 115.453 143.613 115.36 143.871 115.285C144.132 115.206 144.411 115.167 144.708 115.167C145.156 115.167 145.548 115.231 145.885 115.36C146.225 115.489 146.476 115.665 146.637 115.887C146.798 116.105 146.909 116.399 146.97 116.768L146.024 116.896C145.981 116.603 145.856 116.374 145.648 116.209C145.444 116.044 145.154 115.962 144.778 115.962C144.334 115.962 144.017 116.035 143.828 116.182C143.638 116.329 143.543 116.501 143.543 116.698C143.543 116.823 143.582 116.936 143.661 117.036C143.74 117.14 143.863 117.226 144.032 117.294C144.128 117.33 144.413 117.412 144.886 117.541C145.57 117.724 146.046 117.874 146.314 117.992C146.587 118.107 146.8 118.275 146.954 118.497C147.108 118.719 147.185 118.995 147.185 119.324C147.185 119.646 147.09 119.951 146.9 120.237C146.714 120.52 146.443 120.74 146.089 120.898C145.734 121.052 145.333 121.129 144.886 121.129C144.145 121.129 143.579 120.975 143.188 120.667C142.802 120.359 142.555 119.903 142.447 119.297ZM151.535 121V113.126H155.026C155.728 113.126 156.262 113.198 156.627 113.341C156.992 113.48 157.284 113.729 157.502 114.087C157.721 114.445 157.83 114.841 157.83 115.274C157.83 115.833 157.649 116.304 157.288 116.687C156.926 117.07 156.367 117.314 155.612 117.417C155.888 117.55 156.097 117.681 156.24 117.81C156.545 118.089 156.833 118.438 157.105 118.857L158.475 121H157.164L156.122 119.362C155.818 118.889 155.567 118.528 155.37 118.277C155.173 118.026 154.996 117.851 154.838 117.75C154.684 117.65 154.527 117.58 154.366 117.541C154.248 117.516 154.054 117.503 153.786 117.503H152.577V121H151.535ZM152.577 116.601H154.817C155.293 116.601 155.666 116.553 155.934 116.456C156.203 116.356 156.407 116.198 156.546 115.983C156.686 115.765 156.756 115.529 156.756 115.274C156.756 114.902 156.62 114.596 156.348 114.356C156.079 114.116 155.653 113.996 155.069 113.996H152.577V116.601ZM163.067 120.296C162.709 120.601 162.363 120.816 162.03 120.941C161.701 121.066 161.346 121.129 160.967 121.129C160.34 121.129 159.859 120.977 159.522 120.672C159.185 120.364 159.017 119.972 159.017 119.496C159.017 119.217 159.08 118.963 159.205 118.733C159.334 118.501 159.5 118.314 159.705 118.175C159.912 118.035 160.145 117.93 160.403 117.858C160.593 117.808 160.879 117.759 161.262 117.713C162.043 117.62 162.618 117.509 162.986 117.38C162.99 117.247 162.992 117.163 162.992 117.127C162.992 116.734 162.9 116.456 162.718 116.295C162.471 116.076 162.104 115.967 161.617 115.967C161.162 115.967 160.825 116.048 160.607 116.209C160.392 116.367 160.233 116.648 160.129 117.052L159.184 116.923C159.27 116.519 159.411 116.193 159.608 115.946C159.805 115.695 160.09 115.504 160.462 115.371C160.834 115.235 161.266 115.167 161.756 115.167C162.243 115.167 162.639 115.224 162.943 115.339C163.248 115.453 163.472 115.598 163.615 115.774C163.758 115.946 163.858 116.164 163.916 116.429C163.948 116.594 163.964 116.891 163.964 117.321V118.61C163.964 119.509 163.984 120.078 164.023 120.318C164.066 120.554 164.148 120.782 164.27 121H163.26C163.16 120.799 163.096 120.565 163.067 120.296ZM162.986 118.137C162.635 118.28 162.109 118.402 161.407 118.502C161.01 118.56 160.729 118.624 160.564 118.696C160.399 118.767 160.272 118.873 160.183 119.013C160.093 119.149 160.048 119.301 160.048 119.469C160.048 119.727 160.145 119.942 160.338 120.114C160.535 120.286 160.822 120.372 161.198 120.372C161.57 120.372 161.901 120.291 162.191 120.13C162.481 119.965 162.694 119.741 162.831 119.458C162.934 119.24 162.986 118.918 162.986 118.492V118.137ZM165.468 121V115.296H166.338V116.107C166.757 115.48 167.362 115.167 168.153 115.167C168.497 115.167 168.812 115.23 169.099 115.355C169.389 115.477 169.605 115.638 169.749 115.838C169.892 116.039 169.992 116.277 170.049 116.553C170.085 116.732 170.103 117.045 170.103 117.493V121H169.136V117.53C169.136 117.136 169.099 116.843 169.023 116.649C168.948 116.452 168.814 116.297 168.621 116.182C168.431 116.064 168.207 116.005 167.949 116.005C167.537 116.005 167.181 116.136 166.88 116.397C166.583 116.658 166.435 117.154 166.435 117.885V121H165.468ZM175.292 121V120.28C174.93 120.846 174.398 121.129 173.696 121.129C173.242 121.129 172.823 121.004 172.439 120.753C172.06 120.502 171.764 120.153 171.553 119.706C171.346 119.254 171.242 118.737 171.242 118.153C171.242 117.584 171.337 117.068 171.526 116.606C171.716 116.141 172.001 115.785 172.38 115.538C172.76 115.291 173.184 115.167 173.653 115.167C173.997 115.167 174.303 115.24 174.572 115.387C174.84 115.53 175.059 115.718 175.227 115.951V113.126H176.188V121H175.292ZM172.235 118.153C172.235 118.884 172.389 119.43 172.697 119.792C173.005 120.153 173.369 120.334 173.788 120.334C174.21 120.334 174.568 120.162 174.862 119.818C175.159 119.471 175.308 118.943 175.308 118.234C175.308 117.453 175.157 116.88 174.856 116.515C174.556 116.15 174.185 115.967 173.745 115.967C173.315 115.967 172.955 116.143 172.665 116.494C172.379 116.845 172.235 117.398 172.235 118.153ZM177.354 118.148C177.354 117.092 177.648 116.309 178.235 115.801C178.725 115.378 179.323 115.167 180.029 115.167C180.813 115.167 181.454 115.425 181.952 115.94C182.449 116.452 182.698 117.161 182.698 118.067C182.698 118.801 182.587 119.38 182.365 119.802C182.147 120.221 181.826 120.547 181.404 120.78C180.985 121.013 180.527 121.129 180.029 121.129C179.23 121.129 178.584 120.873 178.09 120.361C177.599 119.849 177.354 119.111 177.354 118.148ZM178.348 118.148C178.348 118.878 178.507 119.426 178.826 119.792C179.144 120.153 179.545 120.334 180.029 120.334C180.509 120.334 180.908 120.151 181.227 119.786C181.545 119.421 181.705 118.864 181.705 118.116C181.705 117.41 181.543 116.877 181.221 116.515C180.903 116.15 180.505 115.967 180.029 115.967C179.545 115.967 179.144 116.148 178.826 116.51C178.507 116.871 178.348 117.417 178.348 118.148ZM183.837 121V115.296H184.702V116.096C184.881 115.817 185.119 115.593 185.416 115.425C185.713 115.253 186.052 115.167 186.431 115.167C186.854 115.167 187.199 115.255 187.468 115.43C187.74 115.606 187.931 115.851 188.042 116.166C188.494 115.5 189.081 115.167 189.804 115.167C190.37 115.167 190.805 115.325 191.109 115.64C191.414 115.951 191.566 116.433 191.566 117.084V121H190.604V117.407C190.604 117.02 190.572 116.743 190.508 116.574C190.447 116.402 190.334 116.264 190.169 116.161C190.005 116.057 189.811 116.005 189.589 116.005C189.188 116.005 188.855 116.139 188.59 116.408C188.325 116.673 188.193 117.099 188.193 117.686V121H187.226V117.294C187.226 116.864 187.147 116.542 186.99 116.327C186.832 116.112 186.574 116.005 186.216 116.005C185.944 116.005 185.692 116.076 185.459 116.22C185.23 116.363 185.063 116.572 184.959 116.848C184.856 117.124 184.804 117.521 184.804 118.041V121H183.837ZM196.067 114.238V113.126H197.034V114.238H196.067ZM196.067 121V115.296H197.034V121H196.067ZM200.622 120.135L200.761 120.989C200.489 121.047 200.246 121.075 200.031 121.075C199.68 121.075 199.408 121.02 199.214 120.909C199.021 120.798 198.885 120.653 198.806 120.474C198.727 120.291 198.688 119.91 198.688 119.33V116.048H197.979V115.296H198.688V113.883L199.649 113.303V115.296H200.622V116.048H199.649V119.383C199.649 119.659 199.666 119.836 199.698 119.915C199.734 119.994 199.789 120.056 199.864 120.103C199.943 120.15 200.054 120.173 200.197 120.173C200.305 120.173 200.446 120.16 200.622 120.135ZM205.477 119.163L206.476 119.287C206.319 119.87 206.027 120.323 205.601 120.646C205.174 120.968 204.63 121.129 203.968 121.129C203.133 121.129 202.471 120.873 201.98 120.361C201.493 119.845 201.25 119.124 201.25 118.196C201.25 117.237 201.497 116.492 201.991 115.962C202.485 115.432 203.126 115.167 203.914 115.167C204.677 115.167 205.3 115.427 205.783 115.946C206.267 116.465 206.508 117.195 206.508 118.137C206.508 118.194 206.507 118.28 206.503 118.395H202.249C202.285 119.022 202.462 119.501 202.781 119.834C203.099 120.167 203.497 120.334 203.973 120.334C204.328 120.334 204.63 120.241 204.881 120.055C205.132 119.868 205.33 119.571 205.477 119.163ZM202.303 117.6H205.488C205.445 117.12 205.323 116.76 205.123 116.521C204.815 116.148 204.415 115.962 203.925 115.962C203.481 115.962 203.107 116.111 202.802 116.408C202.501 116.705 202.335 117.102 202.303 117.6ZM207.695 121V115.296H208.56V116.096C208.739 115.817 208.977 115.593 209.274 115.425C209.572 115.253 209.91 115.167 210.29 115.167C210.712 115.167 211.058 115.255 211.326 115.43C211.598 115.606 211.79 115.851 211.901 116.166C212.352 115.5 212.939 115.167 213.663 115.167C214.228 115.167 214.663 115.325 214.968 115.64C215.272 115.951 215.424 116.433 215.424 117.084V121H214.463V117.407C214.463 117.02 214.431 116.743 214.366 116.574C214.305 116.402 214.193 116.264 214.028 116.161C213.863 116.057 213.67 116.005 213.448 116.005C213.047 116.005 212.714 116.139 212.449 116.408C212.184 116.673 212.051 117.099 212.051 117.686V121H211.084V117.294C211.084 116.864 211.006 116.542 210.848 116.327C210.691 116.112 210.433 116.005 210.075 116.005C209.803 116.005 209.55 116.076 209.317 116.22C209.088 116.363 208.922 116.572 208.818 116.848C208.714 117.124 208.662 117.521 208.662 118.041V121H207.695ZM216.472 119.297L217.428 119.147C217.481 119.53 217.63 119.824 217.874 120.028C218.121 120.232 218.464 120.334 218.905 120.334C219.349 120.334 219.678 120.244 219.893 120.065C220.108 119.883 220.215 119.67 220.215 119.426C220.215 119.208 220.12 119.036 219.931 118.911C219.798 118.825 219.469 118.715 218.942 118.583C218.233 118.404 217.741 118.25 217.465 118.121C217.193 117.989 216.986 117.808 216.842 117.579C216.703 117.346 216.633 117.09 216.633 116.811C216.633 116.556 216.69 116.322 216.805 116.107C216.923 115.889 217.082 115.708 217.283 115.564C217.433 115.453 217.637 115.36 217.895 115.285C218.156 115.206 218.436 115.167 218.733 115.167C219.181 115.167 219.573 115.231 219.909 115.36C220.249 115.489 220.5 115.665 220.661 115.887C220.822 116.105 220.933 116.399 220.994 116.768L220.049 116.896C220.006 116.603 219.881 116.374 219.673 116.209C219.469 116.044 219.179 115.962 218.803 115.962C218.359 115.962 218.042 116.035 217.852 116.182C217.662 116.329 217.567 116.501 217.567 116.698C217.567 116.823 217.607 116.936 217.686 117.036C217.764 117.14 217.888 117.226 218.056 117.294C218.153 117.33 218.438 117.412 218.91 117.541C219.594 117.724 220.07 117.874 220.339 117.992C220.611 118.107 220.824 118.275 220.978 118.497C221.132 118.719 221.209 118.995 221.209 119.324C221.209 119.646 221.114 119.951 220.924 120.237C220.738 120.52 220.468 120.74 220.113 120.898C219.759 121.052 219.358 121.129 218.91 121.129C218.169 121.129 217.603 120.975 217.213 120.667C216.826 120.359 216.579 119.903 216.472 119.297ZM222.992 123.315H222.299C223.37 121.596 223.905 119.876 223.905 118.153C223.905 117.48 223.828 116.812 223.674 116.15C223.553 115.613 223.382 115.097 223.164 114.603C223.024 114.281 222.736 113.744 222.299 112.992H222.992C223.665 113.89 224.163 114.793 224.485 115.699C224.761 116.479 224.899 117.296 224.899 118.148C224.899 119.115 224.713 120.049 224.34 120.952C223.972 121.854 223.522 122.642 222.992 123.315Z" fill="black"/>
</g>
<defs>
<clipPath id="clip0">
<rect width="230" height="130" fill="white"/>
</clipPath>
</defs>
</svg>
